<svg height="165" viewBox="0 0 165 165" width="165" xmlns="http://www.w3.org/2000/svg"><g fill="none" fill-rule="evenodd"><rect fill="#f5fbff" height="165" rx="8" width="165"/><g fill="#091724"><path d="m142.424163 80.0575358c-3.125079 5.3425223-6.854186 10.2518372-10.97954 14.8586825-11.209249 12.5189187-23.961198 23.2178127-38.3905413 31.9152007-3.1099387 1.874093-6.3362978 3.53546-9.7490339 4.810153-1.899793.70964-3.8361306 1.286327-5.8831458 1.352804-.5961977.019389-1.204925-.009972-1.7922477-.109687-1.7614459-.299146-2.8770979-1.33563-3.3657503-3.043531-.4479314-1.56276-.2662529-3.112779.1038908-4.653933.6322202-2.627498 1.8413218-5.002937 3.2707346-7.276445 2.4103722-3.834606 5.4085891-7.184485 8.682456-10.300587 3.0175333-2.871246 6.2506792-5.487331 9.6268709-7.9298009.1503546-.1085789.307496-.2088481.4615051-.3129952.0553388.0304686.1111997.0609371.1665386.0908517-.1158984.4481647-.233885.8963294-.3466509 1.3450484-.6275216 2.495651-1.3490149 4.976567-1.4936268 7.562516-.0381107.679726.0109634 1.38715.16184 2.050257.4296592 1.88628 1.9645291 2.462413 3.6027677 1.403769.7235815-.467554 1.1981382-.960036 1.5270389-1.660813-.509013.188905-.9110027.327953-1.3046394.485835-1.5286051.614357-1.9519994.34291-1.6852244-1.281895.2735618-1.668015.6343084-3.332706 1.1104313-4.954187.7157506-2.438814 1.5792454-4.8347499 2.3487686-7.2583848.1842888-.5805644.5283293-.9550506 1.0295113-1.2763554 11.0040777-7.0509772 22.8084797-12.278273 35.5452887-15.3600287 2.421858-.5861042 4.887047-.9949367 7.332919-1.4807717.145656-.0288066.299143-.0182811.595676-.0332384-.226576.4171422-.39207.7428787-.575837 1.0575358m6.259034-3.4623367c.082836-.2367743.127399-.3835077.184545-.5263504.76177-1.90142 1.612667-3.7733823 2.269583-5.7098183 1.388803-4.0940836 2.165253-8.2898802 1.751601-12.6396357-.5421-5.6992579-3.224812-10.1301614-8.007242-13.3116079-2.502361-1.6652015-5.245364-2.8101665-8.136212-3.6133095-5.652726-1.5696025-11.437568-1.9236524-17.267498-1.7569099-6.653041.1900864-13.221673 1.0938307-19.7069463 2.5478251-14.1842408 3.1797791-27.5920314 8.3665818-40.2170805 15.528727-3.9734748 2.2538025-7.7991043 4.7382655-11.2530233 7.7385185-.9048974.7864687-1.7337751 1.6629783-2.5553129 2.5367089-.2935936.31292-.5164102.7219949-.6736924 1.1244001-.1887388.484109.011534.9298672.3963513 1.144965.4199437.2345511.7035761.0177859 1.0076552-.2523369 2.5112738-2.2326818 5.2013252-4.235259 8.0350277-6.0444149 7.4221511-4.7382654 15.3166733-8.5444404 23.5226144-11.7353356 11.7033749-4.5504023 23.7297028-7.7963225 36.2991788-8.8456885 6.130339-.5118994 12.242329-.4779951 18.307134.6814209 3.67726.7030974 7.182558 1.8730738 10.310378 3.9812546 2.978402 2.0064678 5.014683 4.684352 5.883406 8.1915022.639615 2.5828409.615498 5.1834678.223341 7.7913202-.693091 4.6026482-2.382827 8.8690324-4.469439 13.0025785-.219146.434642-.534235.5413572-.974101.5952706-4.955441.6091659-9.808123 1.7068872-14.601039 3.078622-9.710084 2.7795971-18.958807 6.6369065-27.698459 11.6836455-.224914.1300591-.473944.2206559-.835693.3862867.149418-.4296398.233826-.6980952.335011-.9598808 1.268744-3.2953872 2.512847-6.600779 3.816717-9.8828268 2.549021-6.4173622 5.163053-12.809713 7.684288-19.2381914.884975-2.2571373 1.591172-4.5843065 2.343506-6.8909108.18402-.5630338.293069-1.1677532.322429-1.7585773.042466-.8587238-.510119-1.5779397-1.265598-1.8047095-.812626-.2439998-1.643076.0844829-2.123836.8570564-.132117.2128745-.234874.446314-.331865.6786419-.316662.756455-.656392 1.5051287-.92849 2.2771464-.816819 2.3166088-1.707037 4.6154318-2.367098 6.9765053-.373808 1.3372747-.752334 2.6600984-1.276084 3.9445713-.178253.4379769-.353361.8776212-.532663 1.3150423-3.592327 8.7878845-7.0210809 17.6357962-9.9203177 26.677685-.1698648.5307969-.5001576.8370473-.9368781 1.1210653-4.2550101 2.7662577-8.3197087 5.7831854-12.0939592 9.1732814-3.7569496 3.374312-7.1741694 7.048205-9.929755 11.291245-1.6771535 2.58173-3.0738202 5.295186-3.8083284 8.303776-.452973 1.855844-.6464302 3.727806-.2228166 5.616442.7004304 3.123087 2.5757596 5.149564 5.7439491 5.872115.8870721.202314 1.8244745.263453 2.7377603.257686 2.7728867-.021468 5.3837726-.812939 7.934367-1.813394 4.4149138-1.73301 8.5330883-4.035168 12.5432623-6.534638 8.9818673-5.598656 17.2480993-12.119399 25.0435343-19.238191 5.71092-5.214815 11.035974-10.790128 15.822598-16.8606659 3.234772-4.1024208 6.175427-8.3982628 8.577651-13.0398176"/><path d="m79.5989983 73.8784407c-3.514379 7.1061755-7.3062512 14.0739938-11.1815317 20.9990532-7.0253895 12.5546131-14.2305882 25.0095281-21.9330291 37.1891701-.8966398 1.417912-1.8333798 2.812561-2.7578224 4.213857-.164678.249796-.3614362.480206-.5432237.719479l-.1833914-.054833c.0213868-.328446.0342188-.657446.0668336-.984784.3753376-3.798453 1.2997802-7.48724 2.4338131-11.127839 4.8350112-15.523366 12.825104-29.3624072 23.6867432-41.6651189 3.0369196-3.4384363 6.2091105-6.7461588 9.8240072-9.6290617.2716118-.2165639.5549864-.4181732.9886029-.5383634-.1331326.2929982-.2582451.5898735-.4010017.8784407m5.5328234-1.993979c.6136797-.4965404 1.2337242-.9875016 1.8670289-1.4600518.6343654-.4692028 1.2756262-.9339422 1.9428768-1.3534909.6720243-.405601 1.3461703-.8346342 2.1348839-.9958703-.3999261-.0206427-.817886.0323588-1.212508.1288773-.4020477.0859182-.7897744.2086586-1.1806835.330841-.7770447.2527334-1.5323427.5534472-2.2860495.8614138-.442889.1841105-.8815347.3760317-1.3191196.5713004 2.3714449-5.2265057 4.5153456-10.5439509 6.2094621-16.0382536 1.3573088-4.3996823 2.3947827-8.8635244 2.6536208-13.4707494.1967806-3.5025622-.0647095-6.9521229-1.3493526-10.2711326-1.6166773-4.1759602-4.5678558-6.9510071-8.9108195-8.273255-3.3781552-1.028787-6.8316282-1.0717461-10.3057869-.7018514-4.6580248.4965403-9.1488126 1.6910268-13.5066276 3.3441156-15.9084647 6.0332443-28.8975752 15.8792491-39.1550953 29.2501325-2.4446409 3.1873428-4.5418659 6.5922706-6.1664992 10.2633218-1.5540893 3.5109309-2.6196748 7.1401388-2.5432964 11.0125957.0769089 3.8824992 1.2119776 7.4207677 3.7727773 10.4251158 3.4778716 4.0795533 7.9788963 6.2782786 13.333344 6.7770506 4.0098687.3738001 7.7699163-.6215123 11.4005448-2.2043044.2233009-.0970764.4179599-.2594284.625879-.3916532-.014321-.0725283-.0286419-.1456146-.0434933-.218143-.2423955.0172952-.4932775.0016737-.7266561.0574648-1.183866.2828606-2.3640192.5813427-3.5441724.8803828-3.912274.9908491-7.802271 1.090715-11.6599133-.2661233-7.190713-2.5280042-11.2960548-8.6806413-10.7937604-16.1566422.1522265-2.263443.7404467-4.4225567 1.536586-6.5359217 1.5901569-4.2194772 3.9334902-8.0272165 6.6884186-11.5855697 8.9601472-11.5749695 20.1978573-20.350344 33.6664548-26.3367238 5.0828799-2.2589797 10.3523036-3.9606067 15.889211-4.7645558 3.0673374-.4452126 6.1383877-.5573526 9.1972386.0942869 4.0024431.8519293 6.7207734 3.1270884 8.0144334 6.9961978.6699027 2.0040146.9420009 4.0627044.9616259 6.1621217.0328852 3.5343631-.5203282 6.9967557-1.3684472 10.4173051-1.9662148 7.9323717-5.1359205 15.4284574-8.600532 22.8140768-.1506353.3207985-.4386457.6332284-.7441595.8218022-4.0867776 2.5195238-7.6829297 5.6187168-10.9481085 9.0850148-7.9071323 8.3938753-14.6035071 17.6311997-19.793529 27.897869-3.6704089 7.262321-6.8263241 14.722701-8.8079206 22.622155-.6237574 2.488281-1.1573457 5.000552-1.1668931 7.580331-.002652.815665.0859258 1.643604.2466388 2.444764.2174664 1.084578.7982609 1.951013 1.9699276 2.22941 1.1281734.267797 2.007056-.243249 2.7368945-1.02544.4110646-.440191.7855312-.922226 1.1202173-1.421556 1.291008-1.926465 2.5984586-3.843445 3.8295307-5.806732 6.5478611-10.441853 12.6841272-21.118029 18.6918759-31.866733 5.2488969-9.3907498 10.4081553-18.8284756 15.0889875-28.5104547.3405206-.704641.6762676-1.4109557 1.0104233-2.1183862.5033552-.4346123 1.0226226-.8703404 1.544542-1.2943524"/></g></g></svg>