<svg height="165" viewBox="0 0 165 165" width="165" xmlns="http://www.w3.org/2000/svg"><g fill="none" fill-rule="evenodd"><rect fill="#f5fbff" height="165" rx="8" width="165"/><g fill="#091724"><path d="M142.424 80.058c-3.125 5.342-6.854 10.251-10.98 14.858-11.209 12.52-23.96 23.218-38.39 31.915-3.11 1.875-6.336 3.536-9.749 4.81-1.9.71-3.836 1.287-5.883 1.353a9.022 9.022 0 0 1-1.792-.11c-1.762-.298-2.877-1.335-3.366-3.043-.448-1.563-.266-3.113.104-4.654.632-2.627 1.841-5.003 3.27-7.276 2.41-3.835 5.41-7.185 8.683-10.3 3.018-2.872 6.25-5.488 9.627-7.93.15-.11.307-.21.461-.314l.167.091c-.116.448-.234.897-.347 1.345-.627 2.496-1.349 4.977-1.493 7.563-.038.68.01 1.387.161 2.05.43 1.886 1.965 2.462 3.603 1.404.724-.468 1.198-.96 1.527-1.661-.509.189-.91.328-1.304.486-1.529.614-1.952.343-1.686-1.282a41.381 41.381 0 0 1 1.11-4.954c.717-2.439 1.58-4.835 2.35-7.259.184-.58.528-.955 1.03-1.276 11.003-7.05 22.808-12.278 35.544-15.36 2.422-.586 4.887-.995 7.333-1.48.146-.03.3-.019.596-.034-.227.417-.392.743-.576 1.058m6.26-3.463c.082-.237.127-.383.184-.526.762-1.902 1.612-3.774 2.27-5.71 1.388-4.094 2.165-8.29 1.75-12.64-.541-5.699-3.224-10.13-8.006-13.311-2.503-1.665-5.246-2.81-8.137-3.614-5.652-1.57-11.437-1.923-17.267-1.756-6.653.19-13.222 1.093-19.707 2.547a145.662 145.662 0 0 0-40.217 15.53c-3.974 2.253-7.8 4.737-11.253 7.738-.905.786-1.734 1.663-2.555 2.536-.294.313-.517.722-.674 1.125-.189.484.011.93.396 1.145.42.234.704.017 1.008-.253a63.41 63.41 0 0 1 8.035-6.044c7.422-4.738 15.317-8.544 23.523-11.735 11.703-4.55 23.73-7.797 36.299-8.846 6.13-.512 12.242-.478 18.307.681 3.677.703 7.182 1.873 10.31 3.982 2.979 2.006 5.015 4.684 5.884 8.191.64 2.583.615 5.184.223 7.791-.693 4.603-2.383 8.87-4.47 13.003-.219.435-.534.541-.974.595-4.955.61-9.808 1.707-14.6 3.079-9.71 2.78-18.96 6.637-27.699 11.684-.225.13-.474.22-.836.386.15-.43.234-.698.335-.96 1.269-3.295 2.513-6.6 3.817-9.883 2.549-6.417 5.163-12.81 7.684-19.238.885-2.257 1.591-4.584 2.344-6.891a6.81 6.81 0 0 0 .322-1.759 1.784 1.784 0 0 0-1.265-1.804c-.813-.244-1.643.084-2.124.857a4.751 4.751 0 0 0-.332.678c-.317.757-.656 1.506-.929 2.278-.816 2.316-1.707 4.615-2.367 6.976-.373 1.337-.752 2.66-1.276 3.945-.178.438-.353.877-.532 1.315-3.593 8.788-7.021 17.636-9.92 26.677-.17.531-.5.837-.938 1.121-4.255 2.767-8.32 5.784-12.094 9.174-3.757 3.374-7.174 7.048-9.93 11.291-1.676 2.582-3.073 5.295-3.808 8.304-.453 1.856-.646 3.728-.222 5.616.7 3.123 2.575 5.15 5.743 5.872.888.203 1.825.264 2.738.258 2.773-.021 5.384-.813 7.935-1.813 4.415-1.733 8.533-4.036 12.543-6.535 8.982-5.599 17.248-12.12 25.043-19.238 5.711-5.215 11.036-10.79 15.823-16.86 3.235-4.103 6.175-8.4 8.578-13.04"/><path d="M79.599 73.878c-3.514 7.107-7.306 14.074-11.182 21-7.025 12.554-14.23 25.009-21.933 37.189-.896 1.418-1.833 2.812-2.757 4.214-.165.25-.362.48-.544.719l-.183-.055c.021-.328.034-.657.067-.985.375-3.798 1.3-7.487 2.434-11.127 4.835-15.524 12.825-29.363 23.686-41.666 3.037-3.438 6.21-6.746 9.824-9.629.272-.216.555-.418.989-.538-.133.293-.258.59-.401.878m5.533-1.994a60.434 60.434 0 0 1 1.867-1.46 31.4 31.4 0 0 1 1.943-1.353c.672-.406 1.346-.835 2.135-.996-.4-.02-.818.032-1.213.129-.402.086-.79.209-1.18.33-.778.254-1.533.554-2.287.862a55.79 55.79 0 0 0-1.319.571c2.372-5.226 4.516-10.543 6.21-16.038 1.357-4.4 2.394-8.863 2.653-13.47.197-3.503-.064-6.953-1.349-10.272-1.617-4.176-4.568-6.95-8.91-8.273-3.379-1.029-6.832-1.072-10.307-.702-4.658.497-9.148 1.691-13.506 3.344-15.909 6.034-28.898 15.88-39.155 29.25-2.445 3.188-4.542 6.593-6.167 10.264-1.554 3.51-2.62 7.14-2.543 11.012.077 3.883 1.212 7.421 3.773 10.426 3.478 4.08 7.979 6.278 13.333 6.777 4.01.373 7.77-.622 11.4-2.205.224-.097.418-.26.626-.391l-.043-.219c-.242.018-.493.002-.727.058-1.184.283-2.364.581-3.544.88-3.912.991-7.802 1.091-11.66-.266-7.19-2.528-11.296-8.68-10.794-16.156.153-2.264.74-4.423 1.537-6.536 1.59-4.22 3.933-8.028 6.688-11.586 8.96-11.575 20.198-20.35 33.667-26.337 5.083-2.259 10.352-3.96 15.89-4.764 3.066-.445 6.137-.558 9.196.094 4.003.852 6.721 3.127 8.015 6.996.67 2.004.942 4.063.961 6.162.033 3.535-.52 6.997-1.368 10.418-1.966 7.932-5.136 15.428-8.6 22.814a2.05 2.05 0 0 1-.745.822c-4.087 2.52-7.683 5.618-10.948 9.085-7.907 8.393-14.603 17.63-19.793 27.897-3.67 7.263-6.827 14.723-8.808 22.623-.624 2.488-1.158 5-1.167 7.58-.003.816.086 1.644.246 2.445.218 1.084.799 1.95 1.97 2.23 1.129.267 2.007-.244 2.737-1.026.411-.44.786-.923 1.12-1.422 1.291-1.926 2.599-3.843 3.83-5.807 6.548-10.441 12.684-21.118 18.692-31.866 5.249-9.391 10.408-18.829 15.089-28.51.34-.705.676-1.412 1.01-2.12.504-.434 1.023-.87 1.545-1.294"/></g></g></svg>